<svg xmlns="http://www.w3.org/2000/svg" viewBox="0 0 300 220" width="300" height="220">
  <rect width="300" height="220" fill="#F0FDFA"/>
  <rect x="20" y="70" width="260" height="100" rx="8" fill="#134E4A" stroke="#0D9488" stroke-width="2"/>
  <rect x="30" y="82" width="28" height="18" rx="3" fill="#0F3D3A"/>
  <rect x="64" y="82" width="28" height="18" rx="3" fill="#0F3D3A"/>
  <rect x="98" y="82" width="28" height="18" rx="3" fill="#0F3D3A"/>
  <rect x="132" y="82" width="28" height="18" rx="3" fill="#0F3D3A"/>
  <rect x="166" y="82" width="28" height="18" rx="3" fill="#0F3D3A"/>
  <rect x="200" y="82" width="28" height="18" rx="3" fill="#0F3D3A"/>
  <rect x="234" y="82" width="26" height="18" rx="3" fill="#0F3D3A"/>
  <rect x="30" y="106" width="38" height="18" rx="3" fill="#0F3D3A"/>
  <rect x="74" y="106" width="28" height="18" rx="3" fill="#0F3D3A"/>
  <rect x="108" y="106" width="28" height="18" rx="3" fill="#0F3D3A"/>
  <rect x="142" y="106" width="28" height="18" rx="3" fill="#0F3D3A"/>
  <rect x="176" y="106" width="28" height="18" rx="3" fill="#0F3D3A"/>
  <rect x="100" y="130" width="100" height="18" rx="3" fill="#0F3D3A"/>
  <text x="150" y="192" font-family="Arial" font-size="11" fill="#134E4A" text-anchor="middle" font-weight="bold">Logitech MX Keys</text>
</svg>